<svg width="208" height="98" viewBox="0 0 208 98" fill="none" xmlns="http://www.w3.org/2000/svg">
<path d="M7.54463 14.625V0M0 7.54465H14.625M35.1697 14.625V0M27.625 7.54465H42.25M7.54463 42.25V27.625M0 35.1697H14.625M35.1697 42.25V27.625M27.625 35.1697H42.25M7.54463 69.875V55.25M0 62.7947H14.625M35.1697 69.875V55.25M27.625 62.7947H42.25M7.54463 97.5V82.875M0 90.4197H14.625M35.1697 97.5V82.875M27.625 90.4197H42.25M173.295 14.625V0M165.75 7.54465H180.375M200.92 14.625V0M193.375 7.54465H208M173.295 42.25V27.625M165.75 35.1697H180.375M200.92 42.25V27.625M193.375 35.1697H208M173.295 69.875V55.25M165.75 62.7947H180.375M200.92 69.875V55.25M193.375 62.7947H208M173.295 97.5V82.875M165.75 90.4197H180.375M200.92 97.5V82.875M193.375 90.4197H208M118.045 14.625V0M110.5 7.54465H125.125M145.67 14.625V0M138.125 7.54465H152.75M118.045 42.25V27.625M110.5 35.1697H125.125M145.67 42.25V27.625M138.125 35.1697H152.75M118.045 69.875V55.25M110.5 62.7947H125.125M145.67 69.875V55.25M138.125 62.7947H152.75M118.045 97.5V82.875M110.5 90.4197H125.125M145.67 97.5V82.875M138.125 90.4197H152.75M62.7947 14.625V0M55.25 7.54465H69.875M90.4197 14.625V0M82.875 7.54465H97.5M62.7947 42.25V27.625M55.25 35.1697H69.875M90.4197 42.25V27.625M82.875 35.1697H97.5M62.7947 69.875V55.25M55.25 62.7947H69.875M90.4197 69.875V55.25M82.875 62.7947H97.5M62.7947 97.5V82.875M55.25 90.4197H69.875M90.4197 97.5V82.875M82.875 90.4197H97.5" stroke="#535353"/>
</svg>
