  <svg width="373" height="92" viewBox="0 0 373 92" fill="none" xmlns="http://www.w3.org/2000/svg">
<path d="M9.98326 14.592V2.49597H25.7273V14.592H9.98326ZM10.4633 90.912C9.50326 90.912 8.38326 90.848 7.10326 90.72C5.88726 90.592 4.67126 90.4 3.45526 90.144C2.17526 89.888 1.11926 89.632 0.287262 89.376V79.488H5.18326C6.84726 79.488 8.06326 79.008 8.83126 78.048C9.59926 77.152 9.98326 75.84 9.98326 74.112V21.408H25.7273V75.552C25.7273 78.752 25.2153 81.504 24.1913 83.808C23.2313 86.112 21.6313 87.872 19.3913 89.088C17.1513 90.304 14.1753 90.912 10.4633 90.912Z" fill="white"/>
<path d="M45.612 90.912C43.372 90.912 41.26 90.4 39.276 89.376C37.292 88.416 35.692 87.008 34.476 85.152C33.324 83.36 32.748 81.248 32.748 78.816C32.748 76.128 33.548 73.856 35.148 72C36.812 70.208 38.668 68.864 40.716 67.968C39.244 67.008 38.028 65.824 37.068 64.416C36.172 62.944 35.724 61.312 35.724 59.52C35.724 57.024 36.652 54.912 38.508 53.184C40.364 51.456 42.54 50.304 45.036 49.728C42.732 48.256 40.844 46.432 39.372 44.256C37.964 42.08 37.26 39.648 37.26 36.96C37.26 33.056 38.284 29.888 40.332 27.456C42.444 25.024 45.324 23.232 48.972 22.08C52.62 20.864 56.78 20.256 61.452 20.256C63.308 20.256 64.972 20.352 66.444 20.544C67.98 20.672 69.356 20.896 70.572 21.216C73.132 19.68 74.892 18.08 75.852 16.416C76.812 14.752 77.324 13.408 77.388 12.384H91.116C91.116 14.944 90.668 17.12 89.772 18.912C88.876 20.64 87.596 22.048 85.932 23.136C84.268 24.224 82.284 25.056 79.98 25.632C81.708 27.04 83.052 28.736 84.012 30.72C84.972 32.64 85.452 34.72 85.452 36.96C85.452 40.608 84.524 43.68 82.668 46.176C80.876 48.608 78.38 50.464 75.18 51.744C71.98 53.024 68.3 53.664 64.14 53.664H56.652C54.86 53.664 53.516 53.952 52.62 54.528C51.788 55.04 51.372 55.744 51.372 56.64C51.372 57.472 51.756 58.208 52.524 58.848C53.292 59.424 54.604 59.712 56.46 59.712H75.948C80.876 59.712 84.652 61.12 87.276 63.936C89.9 66.688 91.212 70.208 91.212 74.496C91.212 77.76 90.316 80.608 88.524 83.04C86.732 85.536 84.332 87.456 81.324 88.8C78.38 90.208 75.084 90.912 71.436 90.912H45.612ZM53.196 81.312H69.804C70.892 81.312 71.852 81.088 72.684 80.64C73.516 80.256 74.156 79.68 74.604 78.912C75.116 78.208 75.372 77.376 75.372 76.416C75.372 74.816 74.86 73.6 73.836 72.768C72.812 71.936 71.564 71.52 70.092 71.52H53.196C51.724 71.52 50.476 71.936 49.452 72.768C48.492 73.664 48.012 74.848 48.012 76.32C48.012 77.792 48.492 78.976 49.452 79.872C50.476 80.832 51.724 81.312 53.196 81.312ZM61.356 44.448C64.108 44.448 66.22 43.808 67.692 42.528C69.228 41.248 69.996 39.392 69.996 36.96C69.996 34.464 69.228 32.608 67.692 31.392C66.22 30.112 64.108 29.472 61.356 29.472C58.732 29.472 56.652 30.112 55.116 31.392C53.58 32.608 52.812 34.464 52.812 36.96C52.812 38.56 53.132 39.936 53.772 41.088C54.412 42.176 55.372 43.008 56.652 43.584C57.932 44.16 59.5 44.448 61.356 44.448Z" fill="white"/>
<path d="M116.54 73.152C112.252 73.152 108.54 72.192 105.404 70.272C102.268 68.352 99.8683 65.44 98.2043 61.536C96.5403 57.632 95.7083 52.64 95.7083 46.56C95.7083 40.608 96.5403 35.712 98.2043 31.872C99.9323 27.968 102.332 25.056 105.404 23.136C108.476 21.216 112.092 20.256 116.252 20.256C118.236 20.256 120.124 20.48 121.916 20.928C123.772 21.376 125.404 22.08 126.812 23.04C128.284 24 129.532 25.184 130.556 26.592H131.132V2.49597H146.876V72H134.012L132.86 64.992H132.188C130.46 67.744 128.252 69.792 125.564 71.136C122.876 72.48 119.868 73.152 116.54 73.152ZM121.436 60.864C123.74 60.864 125.596 60.352 127.004 59.328C128.476 58.24 129.532 56.736 130.172 54.816C130.876 52.832 131.228 50.528 131.228 47.904V45.6C131.228 43.68 131.036 41.92 130.652 40.32C130.268 38.72 129.692 37.344 128.924 36.192C128.156 35.04 127.132 34.144 125.852 33.504C124.636 32.864 123.164 32.544 121.436 32.544C119.068 32.544 117.148 33.024 115.676 33.984C114.268 34.944 113.244 36.352 112.604 38.208C111.964 40.064 111.644 42.368 111.644 45.12V48.48C111.644 51.168 111.964 53.44 112.604 55.296C113.244 57.152 114.268 58.56 115.676 59.52C117.148 60.416 119.068 60.864 121.436 60.864Z" fill="white"/>
<path d="M183.626 73.152C177.866 73.152 172.97 72.224 168.938 70.368C164.906 68.448 161.802 65.536 159.626 61.632C157.514 57.728 156.458 52.736 156.458 46.656C156.458 40.704 157.514 35.776 159.626 31.872C161.738 27.968 164.778 25.056 168.746 23.136C172.714 21.216 177.482 20.256 183.05 20.256C188.554 20.256 193.194 21.184 196.97 23.04C200.81 24.896 203.722 27.744 205.706 31.584C207.69 35.424 208.682 40.384 208.682 46.464V49.824H172.394C172.394 52.512 172.778 54.784 173.546 56.64C174.314 58.496 175.498 59.904 177.098 60.864C178.698 61.824 180.842 62.304 183.53 62.304C185.13 62.304 186.538 62.112 187.754 61.728C188.97 61.344 189.994 60.8 190.826 60.096C191.658 59.328 192.298 58.432 192.746 57.408C193.194 56.384 193.418 55.232 193.418 53.952H208.682C208.682 57.024 208.106 59.776 206.954 62.208C205.866 64.576 204.234 66.592 202.058 68.256C199.882 69.856 197.226 71.072 194.09 71.904C191.018 72.736 187.53 73.152 183.626 73.152ZM172.49 41.088H192.65C192.65 39.424 192.426 37.984 191.978 36.768C191.594 35.488 190.986 34.432 190.154 33.6C189.386 32.768 188.426 32.16 187.274 31.776C186.186 31.328 184.906 31.104 183.434 31.104C181.13 31.104 179.21 31.488 177.674 32.256C176.138 33.024 174.954 34.144 174.122 35.616C173.29 37.088 172.746 38.912 172.49 41.088Z" fill="white"/>
<path d="M231.544 72L212.536 21.408H229.336L235.768 40.704C236.088 41.664 236.504 43.072 237.016 44.928C237.528 46.72 238.072 48.608 238.648 50.592C239.224 52.512 239.736 54.304 240.184 55.968H240.76C241.208 54.432 241.688 52.704 242.2 50.784C242.776 48.864 243.32 47.008 243.832 45.216C244.344 43.36 244.792 41.856 245.176 40.704L251.512 21.408H267.16L248.056 72H231.544Z" fill="white"/>
<path d="M264.912 72V55.968H281.616V72H264.912Z" fill="#E4FF5A"/>
<path d="M293.595 89.856V90.856H294.595H310.339H311.339V89.856V68.9044C312.139 69.7667 313.026 70.5305 314 71.1942L314.008 71.2L314.017 71.2056C315.586 72.2294 317.322 72.9765 319.216 73.4501C321.096 73.92 323.098 74.152 325.219 74.152C329.538 74.152 333.343 73.1534 336.597 71.12C339.871 69.0738 342.361 65.9872 344.091 61.9281C345.824 57.8609 346.667 52.7883 346.667 46.752C346.667 40.6533 345.825 35.5482 344.091 31.4799C342.359 27.4168 339.835 24.3302 336.497 22.2855C333.24 20.2509 329.37 19.256 324.931 19.256C321.533 19.256 318.408 19.9232 315.573 21.2731L315.573 21.2731L315.564 21.2772C313.167 22.4467 311.138 24.2291 309.471 26.59L308.441 21.2196L308.285 20.408H307.459H294.595H293.595V21.408V89.856ZM325.153 58.5864L325.144 58.592L325.136 58.5977C323.947 59.4083 322.278 59.864 320.035 59.864C318.435 59.864 317.093 59.5688 315.979 59.0142C314.914 58.4516 314.013 57.6666 313.273 56.6456C312.589 55.6154 312.059 54.3639 311.7 52.8731C311.397 51.3527 311.243 49.6657 311.243 47.808V45.504C311.243 42.9617 311.553 40.8045 312.148 39.0134C312.799 37.1839 313.748 35.8656 314.959 34.9847L314.959 34.9847L314.965 34.9801C316.225 34.049 317.889 33.544 320.035 33.544C322.278 33.544 323.947 33.9997 325.136 34.8102L325.157 34.8247L325.179 34.8382C326.415 35.5904 327.339 36.7874 327.918 38.5242L327.918 38.5242L327.921 38.534C328.515 40.2543 328.827 42.4089 328.827 45.024V48.384C328.827 50.9991 328.515 53.1536 327.921 54.874C327.345 56.5458 326.417 57.762 325.153 58.5864ZM354.249 72V73H355.249H370.993H371.993V72V2.49597V1.49597H370.993H355.249H354.249V2.49597V72Z" stroke="white" stroke-width="2"/>
</svg>
